<svg xmlns="http://www.w3.org/2000/svg" viewBox="0 0 1000 280" width="1000" height="280" role="img" aria-label="Ali Hussnain - full-stack engineer, web and mobile">
  <title>Ali Hussnain - full-stack engineer, web and mobile</title>
  <defs>
    <linearGradient id="g" x1="0" y1="0" x2="1" y2="1">
      <stop offset="0" stop-color="#0C1B33"/><stop offset="0.6" stop-color="#081226"/><stop offset="1" stop-color="#060E1E"/>
    </linearGradient>
    <radialGradient id="h" cx="0.72" cy="0.18" r="0.7">
      <stop offset="0" stop-color="#C9A227" stop-opacity="0.10"/><stop offset="1" stop-color="#C9A227" stop-opacity="0"/>
    </radialGradient>
    <filter id="soft" x="-40%" y="-40%" width="180%" height="180%">
      <feGaussianBlur stdDeviation="1.4" result="b"/>
      <feMerge><feMergeNode in="b"/><feMergeNode in="SourceGraphic"/></feMerge>
    </filter>
    <clipPath id="c"><rect x="0" y="0" width="1000" height="280" rx="14"/></clipPath>
  </defs>
  <style>
    .sans { font-family: system-ui, -apple-system, "Segoe UI", Roboto, "Helvetica Neue", Arial, sans-serif; }
    .mono { font-family: ui-monospace, SFMono-Regular, "SF Mono", Menlo, Consolas, "Liberation Mono", monospace; }
    @keyframes scan { 0%, 32%, 100% { opacity: .26 } 11% { opacity: 1 } }
    @keyframes beat { 0%, 100% { opacity: .45 } 50% { opacity: 1 } }
    .b { animation: scan 4.0s linear infinite; }
    .dot { animation: beat 2.6s ease-in-out infinite; }
    @media (prefers-reduced-motion: reduce) { .b, .dot { animation: none; opacity: .7 } }
  </style>
  <g clip-path="url(#c)">
    <rect width="1000" height="280" fill="url(#g)"/>
    <rect width="1000" height="280" fill="url(#h)"/>

    <!-- B2B SAAS -->
    <text class="mono" x="60" y="40" fill="#EDE9E0" font-size="11" opacity="1" letter-spacing="0.3">cliniqly.tech</text>
    <text class="mono" x="310" y="39" fill="#6E7F96" font-size="8.5" letter-spacing="1.6">B2B SAAS</text>
    <rect class="b" x="560" y="31" width="3" height="9" rx="0.6" fill="#C9A227" style="animation-delay:-0.00s"/>
    <rect class="b" x="572" y="31" width="3" height="9" rx="0.6" fill="#C9A227" style="animation-delay:-0.21s"/>
    <rect class="b" x="584" y="31" width="3" height="9" rx="0.6" fill="#C9A227" style="animation-delay:-0.42s"/>
    <rect class="b" x="596" y="31" width="3" height="9" rx="0.6" fill="#C9A227" style="animation-delay:-0.63s"/>
    <rect class="b" x="608" y="31" width="3" height="9" rx="0.6" fill="#C9A227" style="animation-delay:-0.84s"/>
    <rect class="b" x="620" y="31" width="3" height="9" rx="0.6" fill="#C9A227" style="animation-delay:-1.05s"/>
    <rect class="b" x="632" y="31" width="3" height="9" rx="0.6" fill="#C9A227" style="animation-delay:-1.26s"/>
    <rect class="b" x="644" y="31" width="3" height="9" rx="0.6" fill="#C9A227" style="animation-delay:-1.47s"/>
    <rect class="b" x="656" y="31" width="3" height="9" rx="0.6" fill="#C9A227" style="animation-delay:-1.68s"/>
    <rect class="b" x="668" y="31" width="3" height="9" rx="0.6" fill="#C9A227" style="animation-delay:-1.89s"/>
    <rect class="b" x="680" y="31" width="3" height="9" rx="0.6" fill="#C9A227" style="animation-delay:-2.11s"/>
    <rect class="b" x="692" y="31" width="3" height="9" rx="0.6" fill="#C9A227" style="animation-delay:-2.32s"/>
    <rect class="b" x="704" y="31" width="3" height="9" rx="0.6" fill="#C9A227" style="animation-delay:-2.53s"/>
    <rect class="b" x="716" y="31" width="3" height="9" rx="0.6" fill="#C9A227" style="animation-delay:-2.74s"/>
    <rect class="b" x="728" y="31" width="3" height="9" rx="0.6" fill="#C9A227" style="animation-delay:-2.95s"/>
    <rect class="b" x="740" y="31" width="3" height="9" rx="0.6" fill="#C9A227" style="animation-delay:-3.16s"/>
    <rect class="b" x="752" y="31" width="3" height="9" rx="0.6" fill="#C9A227" style="animation-delay:-3.37s"/>
    <rect class="b" x="764" y="31" width="3" height="9" rx="0.6" fill="#C9A227" style="animation-delay:-3.58s"/>
    <rect class="b" x="776" y="31" width="3" height="9" rx="0.6" fill="#C9A227" style="animation-delay:-3.79s"/>
    <circle class="dot" cx="822" cy="36" r="2.6" fill="#C9A227" filter="url(#soft)" style="animation-delay:0.00s"/>
    <text class="mono" x="836" y="39" fill="#C9A227" font-size="8.5" letter-spacing="1.4" opacity="0.9">LIVE</text>

    <!-- PROCUREMENT MANAGEMENT SYSTEM -->
    <text class="mono" x="60" y="63" fill="#EDE9E0" font-size="11" opacity="1" letter-spacing="0.3">eproc.psba.gop.pk</text>
    <text class="mono" x="310" y="62" fill="#6E7F96" font-size="8.5" letter-spacing="1.6">PROCUREMENT MANAGEMENT SYSTEM</text>
    <rect class="b" x="560" y="54" width="3" height="9" rx="0.6" fill="#C9A227" style="animation-delay:-0.45s"/>
    <rect class="b" x="572" y="54" width="3" height="9" rx="0.6" fill="#C9A227" style="animation-delay:-0.66s"/>
    <rect class="b" x="584" y="54" width="3" height="9" rx="0.6" fill="#C9A227" style="animation-delay:-0.87s"/>
    <rect class="b" x="596" y="54" width="3" height="9" rx="0.6" fill="#C9A227" style="animation-delay:-1.08s"/>
    <rect class="b" x="608" y="54" width="3" height="9" rx="0.6" fill="#C9A227" style="animation-delay:-1.29s"/>
    <rect class="b" x="620" y="54" width="3" height="9" rx="0.6" fill="#C9A227" style="animation-delay:-1.50s"/>
    <rect class="b" x="632" y="54" width="3" height="9" rx="0.6" fill="#C9A227" style="animation-delay:-1.71s"/>
    <rect class="b" x="644" y="54" width="3" height="9" rx="0.6" fill="#C9A227" style="animation-delay:-1.92s"/>
    <rect class="b" x="656" y="54" width="3" height="9" rx="0.6" fill="#C9A227" style="animation-delay:-2.13s"/>
    <rect class="b" x="668" y="54" width="3" height="9" rx="0.6" fill="#C9A227" style="animation-delay:-2.34s"/>
    <rect class="b" x="680" y="54" width="3" height="9" rx="0.6" fill="#C9A227" style="animation-delay:-2.56s"/>
    <rect class="b" x="692" y="54" width="3" height="9" rx="0.6" fill="#C9A227" style="animation-delay:-2.77s"/>
    <rect class="b" x="704" y="54" width="3" height="9" rx="0.6" fill="#C9A227" style="animation-delay:-2.98s"/>
    <rect class="b" x="716" y="54" width="3" height="9" rx="0.6" fill="#C9A227" style="animation-delay:-3.19s"/>
    <rect class="b" x="728" y="54" width="3" height="9" rx="0.6" fill="#C9A227" style="animation-delay:-3.40s"/>
    <rect class="b" x="740" y="54" width="3" height="9" rx="0.6" fill="#C9A227" style="animation-delay:-3.61s"/>
    <rect class="b" x="752" y="54" width="3" height="9" rx="0.6" fill="#C9A227" style="animation-delay:-3.82s"/>
    <rect class="b" x="764" y="54" width="3" height="9" rx="0.6" fill="#C9A227" style="animation-delay:-4.03s"/>
    <rect class="b" x="776" y="54" width="3" height="9" rx="0.6" fill="#C9A227" style="animation-delay:-4.24s"/>
    <circle class="dot" cx="822" cy="59" r="2.6" fill="#C9A227" filter="url(#soft)" style="animation-delay:-0.65s"/>
    <text class="mono" x="836" y="62" fill="#C9A227" font-size="8.5" letter-spacing="1.4" opacity="0.9">LIVE</text>

    <!-- E-COMMERCE -->
    <text class="mono" x="60" y="86" fill="#EDE9E0" font-size="11" opacity="1" letter-spacing="0.3">alphagrooming.me</text>
    <text class="mono" x="310" y="85" fill="#6E7F96" font-size="8.5" letter-spacing="1.6">E-COMMERCE</text>
    <rect class="b" x="560" y="77" width="3" height="9" rx="0.6" fill="#C9A227" style="animation-delay:-0.90s"/>
    <rect class="b" x="572" y="77" width="3" height="9" rx="0.6" fill="#C9A227" style="animation-delay:-1.11s"/>
    <rect class="b" x="584" y="77" width="3" height="9" rx="0.6" fill="#C9A227" style="animation-delay:-1.32s"/>
    <rect class="b" x="596" y="77" width="3" height="9" rx="0.6" fill="#C9A227" style="animation-delay:-1.53s"/>
    <rect class="b" x="608" y="77" width="3" height="9" rx="0.6" fill="#C9A227" style="animation-delay:-1.74s"/>
    <rect class="b" x="620" y="77" width="3" height="9" rx="0.6" fill="#C9A227" style="animation-delay:-1.95s"/>
    <rect class="b" x="632" y="77" width="3" height="9" rx="0.6" fill="#C9A227" style="animation-delay:-2.16s"/>
    <rect class="b" x="644" y="77" width="3" height="9" rx="0.6" fill="#C9A227" style="animation-delay:-2.37s"/>
    <rect class="b" x="656" y="77" width="3" height="9" rx="0.6" fill="#C9A227" style="animation-delay:-2.58s"/>
    <rect class="b" x="668" y="77" width="3" height="9" rx="0.6" fill="#C9A227" style="animation-delay:-2.79s"/>
    <rect class="b" x="680" y="77" width="3" height="9" rx="0.6" fill="#C9A227" style="animation-delay:-3.01s"/>
    <rect class="b" x="692" y="77" width="3" height="9" rx="0.6" fill="#C9A227" style="animation-delay:-3.22s"/>
    <rect class="b" x="704" y="77" width="3" height="9" rx="0.6" fill="#C9A227" style="animation-delay:-3.43s"/>
    <rect class="b" x="716" y="77" width="3" height="9" rx="0.6" fill="#C9A227" style="animation-delay:-3.64s"/>
    <rect class="b" x="728" y="77" width="3" height="9" rx="0.6" fill="#C9A227" style="animation-delay:-3.85s"/>
    <rect class="b" x="740" y="77" width="3" height="9" rx="0.6" fill="#C9A227" style="animation-delay:-4.06s"/>
    <rect class="b" x="752" y="77" width="3" height="9" rx="0.6" fill="#C9A227" style="animation-delay:-4.27s"/>
    <rect class="b" x="764" y="77" width="3" height="9" rx="0.6" fill="#C9A227" style="animation-delay:-4.48s"/>
    <rect class="b" x="776" y="77" width="3" height="9" rx="0.6" fill="#C9A227" style="animation-delay:-4.69s"/>
    <circle class="dot" cx="822" cy="82" r="2.6" fill="#C9A227" filter="url(#soft)" style="animation-delay:-1.30s"/>
    <text class="mono" x="836" y="85" fill="#C9A227" font-size="8.5" letter-spacing="1.4" opacity="0.9">LIVE</text>

    <!-- P2P RENTALS -->
    <text class="mono" x="60" y="109" fill="#EDE9E0" font-size="11" opacity="1" letter-spacing="0.3">rent-around-frontend.vercel.app</text>
    <text class="mono" x="310" y="108" fill="#6E7F96" font-size="8.5" letter-spacing="1.6">P2P RENTALS</text>
    <rect class="b" x="560" y="100" width="3" height="9" rx="0.6" fill="#C9A227" style="animation-delay:-1.35s"/>
    <rect class="b" x="572" y="100" width="3" height="9" rx="0.6" fill="#C9A227" style="animation-delay:-1.56s"/>
    <rect class="b" x="584" y="100" width="3" height="9" rx="0.6" fill="#C9A227" style="animation-delay:-1.77s"/>
    <rect class="b" x="596" y="100" width="3" height="9" rx="0.6" fill="#C9A227" style="animation-delay:-1.98s"/>
    <rect class="b" x="608" y="100" width="3" height="9" rx="0.6" fill="#C9A227" style="animation-delay:-2.19s"/>
    <rect class="b" x="620" y="100" width="3" height="9" rx="0.6" fill="#C9A227" style="animation-delay:-2.40s"/>
    <rect class="b" x="632" y="100" width="3" height="9" rx="0.6" fill="#C9A227" style="animation-delay:-2.61s"/>
    <rect class="b" x="644" y="100" width="3" height="9" rx="0.6" fill="#C9A227" style="animation-delay:-2.82s"/>
    <rect class="b" x="656" y="100" width="3" height="9" rx="0.6" fill="#C9A227" style="animation-delay:-3.03s"/>
    <rect class="b" x="668" y="100" width="3" height="9" rx="0.6" fill="#C9A227" style="animation-delay:-3.24s"/>
    <rect class="b" x="680" y="100" width="3" height="9" rx="0.6" fill="#C9A227" style="animation-delay:-3.46s"/>
    <rect class="b" x="692" y="100" width="3" height="9" rx="0.6" fill="#C9A227" style="animation-delay:-3.67s"/>
    <rect class="b" x="704" y="100" width="3" height="9" rx="0.6" fill="#C9A227" style="animation-delay:-3.88s"/>
    <rect class="b" x="716" y="100" width="3" height="9" rx="0.6" fill="#C9A227" style="animation-delay:-4.09s"/>
    <rect class="b" x="728" y="100" width="3" height="9" rx="0.6" fill="#C9A227" style="animation-delay:-4.30s"/>
    <rect class="b" x="740" y="100" width="3" height="9" rx="0.6" fill="#C9A227" style="animation-delay:-4.51s"/>
    <rect class="b" x="752" y="100" width="3" height="9" rx="0.6" fill="#C9A227" style="animation-delay:-4.72s"/>
    <rect class="b" x="764" y="100" width="3" height="9" rx="0.6" fill="#C9A227" style="animation-delay:-4.93s"/>
    <rect class="b" x="776" y="100" width="3" height="9" rx="0.6" fill="#C9A227" style="animation-delay:-5.14s"/>
    <circle class="dot" cx="822" cy="105" r="2.6" fill="#C9A227" filter="url(#soft)" style="animation-delay:-1.95s"/>
    <text class="mono" x="836" y="108" fill="#C9A227" font-size="8.5" letter-spacing="1.4" opacity="0.9">LIVE</text>

    <rect x="60" y="128" width="880" height="0.75" fill="#6E7F96" opacity="0.28"/>

    <rect x="60" y="149" width="2.5" height="11" fill="#C9A227"/>
    <text class="mono" x="72" y="158" fill="#6E7F96" font-size="9" letter-spacing="2.6">PSBA &#183; COMSATS UNIVERSITY LAHORE</text>
    <text class="mono" x="940" y="158" fill="#C9A227" font-size="9" letter-spacing="2.6" text-anchor="end" opacity="0.9">LAHORE &#183; PK</text>

    <text class="sans" x="60" y="208" fill="#EDE9E0" font-size="44" font-weight="250" letter-spacing="10.5">ALI HUSSNAIN</text>

    <text class="mono" x="62" y="238" fill="#6E7F96" font-size="10.5" letter-spacing="2.4">FULL-STACK &#8212; WEB &amp; MOBILE</text>

    <rect x="0" y="0" width="1000" height="280" rx="14" fill="none" stroke="#C9A227" stroke-opacity="0.16" stroke-width="1"/>
  </g>
</svg>